<svg xmlns="http://www.w3.org/2000/svg" viewBox="0 0 186.44 294.27"><defs><style>.cls-1{fill:#ab132e;}.cls-2{fill:#fff;}.cls-3{fill:none;}</style></defs><title>资源 1</title><g id="图层_2" data-name="图层 2"><g id="S-shield"><line class="cls-1" x1="26.98" y1="85.3" x2="26.43" y2="85.56"/><polygon class="cls-2" points="45.69 77.25 52.38 79.52 62.36 74.95 62.44 69.94 45.69 77.25"/><path class="cls-2" d="M83.94,194.22a1.55,1.55,0,0,0,1.61-1.47v-2.82a1.61,1.61,0,0,0-3.21,0v2.82A1.54,1.54,0,0,0,83.94,194.22Z"/><path class="cls-2" d="M86.05,201.43V197.3a2.12,2.12,0,0,0-4.22,0v4.13a2.12,2.12,0,0,0,4.22,0Z"/><path class="cls-2" d="M116.66,188.48a2.45,2.45,0,0,0-2.34,2.38v9.95a2.38,2.38,0,1,0,4.75,0v-9.95A2.45,2.45,0,0,0,116.66,188.48Z"/><polygon class="cls-2" points="123.36 47.97 123.36 47.9 123.33 47.93 123.33 48.09 123.47 48.09 123.36 47.97"/><path class="cls-2" d="M157,186.15c-14.41-5.35-40.76-8.66-64.4-12.17h.29C59,168.13,45.59,164.05,26.59,157l.08,57.56L92.49,258.2,158.31,212V196c5,4,6.53,7.7,6.53,10.74.07,5.49-5.29,10.05-7.48,11.54l-.08.07-.85.58,0,0c-7.69,5.57-60.58,44.09-64,46.55L20.41,216.26V168.91c0-3.81,0-14.46,0-14.46C12,151.07,3.24,144.7,0,138.66v89.57l92.5,66h0l.7-.58s37.24-27.24,69.77-51.25c.14-.19,21-14.33,21.17-30.77C184.13,202.39,177.14,193.14,157,186.15ZM73.39,204.24H61.87v-1.08h2.54A1.18,1.18,0,0,0,65.64,202V189.48c0-.64-.66-1.14-1.58-1.14v-.77h5.59V202a1.17,1.17,0,0,0,1.22,1.12h2.52Zm4.28-4.86a5.39,5.39,0,0,1,3.44-4.71,3.83,3.83,0,0,1-2.22-3.34c0-2.2,2.27-4,5-4s5,1.8,5,4a3.92,3.92,0,0,1-2.24,3.37,5.39,5.39,0,0,1,3.46,4.68c0,2.54-2.8,5.12-6.27,5.12S77.67,201.92,77.67,199.38Zm24.14,27.44V227A9,9,0,0,0,95.38,230a11,11,0,0,0-2.78,7.09h-.25A10.9,10.9,0,0,0,89.58,230,9,9,0,0,0,83.13,227v-.26a9,9,0,0,0,6.45-3.06,10.85,10.85,0,0,0,2.77-7.08h.26a10.9,10.9,0,0,0,2.77,7.08,9,9,0,0,0,6.43,3.06Zm-2.14-22.58H95.43l6.24-15.55h-5a1.21,1.21,0,0,0-1.25,1.11h-.77v-2.23h11.78Zm23.41-5.37c0,3.07-2.92,5.57-6.42,5.57s-6.35-2.5-6.35-5.57v-6.05c0-3.07,3-5.57,6.35-5.57s6.42,2.5,6.42,5.57ZM92.5,294v0Zm72.34-55.83c-1,.78-1.76,1.4-2.31,1.81l-.65.48-.17.12c-16.36,12.07-33.79,24.87-47.17,34.68l-22,16.16V268.29l.73-.53L125.81,244c16.23-11.82,32.55-23.7,32.84-23.9h0l.93-.64,0,0c2.72-2.09,7.48-6.55,7.54-12.73,0-4.25-2.39-8.9-8.79-13.61V189c18.12,6.75,23.57,15,23.56,22.63,0,7.2-4.92,14.5-10,19.93A71.75,71.75,0,0,1,164.84,238.15Z"/><path class="cls-2" d="M184.63,173.47c-5.77-4.37-13-7.66-19.88-10.12h0l-.66-.24-.1-.67c0-.45-.1-.91-.1-1.4h0v-51.7L125,93.57,123.79,71.4l-.07-1.79L186.44,97v77.86l-1.81-1.38Zm-.44-3.1V98.48L126.11,73.1,127.22,92l38.93,15.79V161c0,.14,0,.28,0,.42h0a79.77,79.77,0,0,1,18,8.91Zm-59.73-98,.46-1-.46,1Z"/><polygon class="cls-3" points="30.14 88.7 31.88 103.76 32.18 104.47 32.98 104.03 33.82 88.7 41.6 90.99 42.8 90.48 33.5 87.49 30.14 88.7"/><path class="cls-2" d="M74.9,124.7a1.88,1.88,0,1,0,1.53,1.84A1.7,1.7,0,0,0,74.9,124.7Z"/><polygon class="cls-2" points="151.96 134.41 152.54 135 152.44 124.29 156.31 125.13 156.52 124.65 151.96 123.24 148.39 123.24 151.48 124.1 151.96 134.41"/><polygon class="cls-2" points="72.07 91.97 74.63 106.72 74.93 107.45 75.21 106.85 75.48 92.26 82.84 94.45 83.57 94.16 75.23 91.29 72.07 91.97"/><path class="cls-2" d="M83.86,126.82a1.78,1.78,0,1,0,1.44,1.76A1.63,1.63,0,0,0,83.86,126.82Z"/><polygon class="cls-2" points="30.14 88.7 31.88 103.76 32.18 104.47 32.98 104.03 33.82 88.7 41.6 90.99 42.8 90.48 33.5 87.49 30.14 88.7"/><path class="cls-2" d="M53.18,130.2l.13,13.94,4.32.72V129Z"/><polygon class="cls-2" points="94.1 116.58 93.94 115.84 62.33 107.59 62.31 107.6 62.43 108.4 94.1 116.58"/><path class="cls-2" d="M53.29,129.47l4.18-1.14a10.64,10.64,0,0,0-2-6.06A14,14,0,0,0,53.29,129.47Zm3-3.1c0,1-.42,1.85-.9,1.83s-.84-.85-.8-1.86.42-1.86.88-1.85S56.35,125.34,56.32,126.37Z"/><path class="cls-2" d="M135.28,138.48c-.59,0-1.06.63-1.06,1.41s.47,1.41,1.06,1.41,1.06-.63,1.06-1.41S135.86,138.48,135.28,138.48Z"/><path class="cls-2" d="M141.75,139.83c-.58,0-1,.64-1,1.42s.46,1.4,1,1.4,1-.62,1-1.4S142.32,139.83,141.75,139.83Z"/><polygon class="cls-2" points="128.91 109.26 132.7 122.84 132.51 110.05 137.97 111.63 138.3 111.37 132.33 109.26 128.91 109.26"/><path class="cls-2" d="M36.7,121s5,2.92,4.68,8l-9.71-1.89S31.59,123.21,36.7,121ZM96.9,37.35l5.39,2.37-4,2.2L98.8,43l4.5-2.47v9.87l1.34.68.12-9.13,1.66-.53,1.87,2.28v9.24l1.84.93-.66-.87V47.61l11.08,13.84-26.31-12ZM95.48,37,93,48.43,89.63,37ZM75.63,49.81v3.72l-.67.86,1.69-.73V44.25l2.23-2.85,2.55.27v9.9l1.09-.48.06-10.16,4.54,2.32.25-1.15-4.61-2.44,5.38-2.27,3.33,12L65.05,63.23ZM61.51,68.71V66.93L91.85,51.25l.75,2,.88,58-7.14-26.4.56-1.35-.31.76.52-.16-.59-15.31c0-.95-1.42-4.56-2.37-4.95-.92.87-2,4.16-1.89,6l.47,10.85L79.3,79.38,79,72.29c-.06-.9-1.37-4.55-2.39-5-.91.88-2,4.16-1.87,6L75,77.82l-2.81-1,0-1c-.05-1-1.37-4.54-2.38-5-.92.88-1.63,3.9-1.75,4.47L65,74.2h-.88l-1.2.54V69.4Zm-.39,37.7-10.78,4.11L53,83.08,52.59,81l9.22-4.34,1.3,2.16Zm2-.33,2.17-27.29,1-2.69,20.11,7-.82,1.81,8.17,29.25ZM104.43,86l-5.62-2V68.63s.54-3.68,3-5.15c0,0,2.6,3.69,2.6,6.45Zm7.67,2.69L107,87V71.23a9,9,0,0,1,2.75-4.68s2.4,3.28,2.4,6Zm6.84-13.61V91.15l-4.31-1.53V73.74a5.19,5.19,0,0,1,2.29-3.85,12.62,12.62,0,0,1,2,4.91C119,74.9,118.94,75,118.94,75.1ZM93.49,56.85l-.09-3.94.79-1.66,30.81,14v2.08l-1.5.85.09,1.47ZM72.26,128.26A7.11,7.11,0,0,1,75.11,123,11.84,11.84,0,0,1,77.63,129c0,.12.05.23.05.36Zm9.06,1.93A6.85,6.85,0,0,1,84,125a11.15,11.15,0,0,1,2.38,5.77c0,.12,0,.37,0,.48Zm27.92,1.44a1.74,1.74,0,1,1,1.72,2A1.88,1.88,0,0,1,109.24,131.63Zm8,21.21V138c0-5.17-5.65-10.5-6.52-11.3-.89.55-6,4-6,8.85v15.55l1.36.17V136.91a5.19,5.19,0,0,1,2.29-3.85,12.62,12.62,0,0,1,2,4.91,2.8,2.8,0,0,1,0,.29v13.6l1.26.17V137.8s-.19-1.69,2.15-3.54a9.5,9.5,0,0,1,2.15,4.59,1.51,1.51,0,0,1,0,.3v13.5Zm16.05-11.56a6.29,6.29,0,0,1,2-3.93,7.45,7.45,0,0,1,2.12,4.51,1.36,1.36,0,0,1,0,.27Zm4.14,15.06,2.45.5V144.11l3.93.8v12.78c2,.45,3.8.87,5.38,1.27l-.32-27.78h0v0h.05l1.57-.83-.21-1.08-2.28-.61-9.4-19.89,20.87,6.72v22.17l-10.2-2.46V136l10.28,2.42-.1.68-10.18-2.39v.55l10.13,2.33,0,.67-10.17-2.35.24,21.18c1.69.43,3.16.82,4.4,1.16l-.08-7.93,5.28.95c0,1.85.06,5.47.09,8.6l.11,0,.44.14V114.74l-21.59-7-2.4-5.4,1.56-2.56L125,95.35l-.81-26.73,1.71-1-.16-3-2-.83L109.36,46l0-2,2.14-.21-4-5.4-4.31.68-2.14-1L96.51,36l-7.68,0-4.65,2-2.69,1.1-3.72-.52-4.39,5.75,2.15.21v4.33L60.7,67l0,1.95,1.46,1-.08,5.07-9.57,4.37-6.7-2.26L44,78l8.61,3-.48,2.19-2.7,27.39L26.53,105V138.7c1.4.38,3.25.77,5.14,1.21V129.4l9.58,1.9v10.62q3.77.75,8.37,1.58v-29l-23-5.57v-.91l22.93,5.58,0,0v-.87l-.11,0L26.66,107.2v-1l22.64,5.5,13-4.92h.09l36.92,9.74,0-14.68a11,11,0,0,1,3-5.15s2.59,3.7,2.59,6.45c0,1.51,0,11.47,0,14.86l3.13.83V104a9.08,9.08,0,0,1,2.77-4.69s2.39,3.28,2.39,6v14.86l2.84.74V106.2a5.24,5.24,0,0,1,2.29-3.86,12.54,12.54,0,0,1,2,4.9c0,.11,0,.21,0,.31v14.5l29.54,7.8-.79.38-22.61-5.91,0,.68,22,5.7-.84.62-85.36-22v36.3q4.68.72,10,1.47V130l5.42,1.09-.07,16.69,3.71.49V131.86l5.13,1.1v16c3.22.39,6.56.79,10,1.19,2.69.3,5.27.61,7.76.93v-15.5c0-5.57,6.27-9.25,6.34-9.28l.12-.07.12.09c.27.24,6.79,6,6.79,11.71v14.9c5.88.88,11.07,1.77,15.62,2.63V142.81l4.14.85Zm2.4-13.69a6.32,6.32,0,0,1,1.91-3.94,7.46,7.46,0,0,1,2.07,4.51,2.19,2.19,0,0,1,0,.27Zm6.69-14.45-19.85-5.28L125,96.67l10.73,3.75-1,1.66Zm7.41,22.44c.19-.9.62-3.63,2.77-4.52a11.68,11.68,0,0,1,2.41,5.48Z"/><path class="cls-2" d="M153.89,160.2v0Z"/><path class="cls-2" d="M81.32,148.29h0Z"/><path class="cls-2" d="M86.45,148.94Z"/><path class="cls-2" d="M72.27,147.07h0Z"/><path class="cls-2" d="M77.61,147.8Z"/><path class="cls-2" d="M31.67,139.91Z"/><path class="cls-2" d="M104.25,151.06Z"/><path class="cls-2" d="M57.63,144.86h0Z"/><path class="cls-2" d="M62.31,145.6Z"/><polygon class="cls-2" points="26.53 85.5 26.43 85.55 26.43 104.96 26.53 104.98 26.53 85.5"/><path class="cls-2" d="M90.54,3.11h0S90.53,3.09,90.54,3.11Z"/><path class="cls-2" d="M91,3.77a3.25,3.25,0,0,1,1.49-.33,3.41,3.41,0,0,1,1.35.27,1.23,1.23,0,0,0,.39-.6,2.08,2.08,0,0,0-3.69,0A2,2,0,0,0,91,3.77Z"/><path class="cls-2" d="M92.52,1.31a1.93,1.93,0,0,1,.47.05A.84.84,0,0,0,93.2.8a.75.75,0,1,0-1.5,0,.78.78,0,0,0,.25.58A2.54,2.54,0,0,1,92.52,1.31Z"/><path class="cls-2" d="M93.57,5.41a1.65,1.65,0,0,0,.76-.5,3.1,3.1,0,0,0-3.9,0,3.12,3.12,0,0,0,.88.55s.06,0,.09-.06L84.65,28.19,88.32,26h8.31l3.59,2Zm-5.7,19.44-1.94,1.31L91.61,5.79l.24-.13-3,19.19Zm2.37,0L92.47,5.66l2.12,19.17Zm5.51,0L93.1,5.66l.25.13L98.81,26l-2-1.14Z"/><polygon class="cls-2" points="101.01 35.13 101.07 33 101.09 30.85 95.75 27.82 88.82 27.82 84.15 30.88 84.15 34.12 84.18 35.41 84.22 35.41 88.25 32.38 97 32.38 101.03 35.15 101.03 35.49 101.05 35.49 101.06 35.1 101.01 35.13"/><path class="cls-2" d="M26,135.9c-12.79-8.15-16.73-23.25-1.65-30.17l2-.8.09,0V86h0l18.14-7.81-.2-.35-18.14,7.8h0L6.92,94h0L0,96.93v18.52C0,126,7.38,132.79,18,136.2a64.75,64.75,0,0,0,8,2.37Z"/></g></g></svg>