<svg xmlns="http://www.w3.org/2000/svg" viewBox="0 0 185.05 294.27"><defs><style>.cls-1{fill:#aaabab;}.cls-2{fill:#b70031;}.cls-3{fill:#fff;}.cls-4{fill:#ab132e;}</style></defs><title>资源 1</title><g id="图层_2" data-name="图层 2"><g id="S-shield"><path class="cls-1" d="M158.06,219.26,92.53,265.57l-1.49-1-.18,28.53,1.67,1.19s-.7-.62,69.83-52.66c.06,0,55.68-38.06-11.94-57.54v5.2c26.9,13.9,11.75,27.14,7.64,30"/><path class="cls-2" d="M20.41,216.32V169c0-3.81,0-14.46,0-14.46C12,151.12,3.24,144.74,0,138.7v89.6l92.53,66v-28.7Z"/><polygon class="cls-2" points="123.4 47.98 123.4 47.91 123.37 47.95 123.37 48.11 123.51 48.11 123.4 47.98"/><path class="cls-2" d="M92.63,174c24.38,3.63,51.65,7,65.73,12.68V212L92.53,258.28,26.68,214.66l-.08-57.58c19,7,32.46,11.1,66.32,16.95"/><path class="cls-3" d="M73.44,204.31v-1.08H70.92a1.19,1.19,0,0,1-1.23-1.13V187.63H64.1v.77c.92,0,1.58.5,1.58,1.13V202.1a1.19,1.19,0,0,1-1.23,1.13H61.91v1.08Z"/><path class="cls-3" d="M84,204.56c3.47,0,6.27-2.57,6.27-5.12,0-2.06-1.46-3.74-3.47-4.68A3.92,3.92,0,0,0,89,191.39c0-2.2-2.27-4-5.05-4s-5,1.8-5,4a3.85,3.85,0,0,0,2.21,3.35,5.39,5.39,0,0,0-3.44,4.7c0,2.55,2.8,5.12,6.28,5.12m2.1-3.07a2.11,2.11,0,0,1-4.21,0v-4.13a2.11,2.11,0,0,1,4.21,0Zm-.49-8.68A1.56,1.56,0,0,1,84,194.29a1.54,1.54,0,0,1-1.6-1.48V190a1.61,1.61,0,0,1,3.21,0Z"/><path class="cls-3" d="M106.47,187.63H94.68v2.23h.77a1.21,1.21,0,0,1,1.25-1.11h5l-6.25,15.56h4.24Z"/><path class="cls-3" d="M116.72,204.51c3.5,0,6.42-2.5,6.42-5.57v-6.06c0-3.07-2.94-5.57-6.42-5.57s-6.36,2.5-6.36,5.57v6.06c0,3.07,2.92,5.57,6.36,5.57m2.41-3.64a2.38,2.38,0,1,1-4.75,0v-10a2.38,2.38,0,1,1,4.75,0Z"/><path class="cls-3" d="M95.44,223.7a10.91,10.91,0,0,1-2.77-7.09h-.26a11,11,0,0,1-2.77,7.09,9,9,0,0,1-6.46,3.06V227a9,9,0,0,1,6.46,3,11,11,0,0,1,2.77,7.09h.25a11,11,0,0,1,2.78-7.09,9,9,0,0,1,6.43-3v-.26a9,9,0,0,1-6.43-3.06"/><line class="cls-4" x1="26.99" y1="85.33" x2="26.44" y2="85.59"/><path class="cls-3" d="M159.78,114.77l-21.6-7-2.39-5.4,1.55-2.56L125,95.38l-.81-26.74,1.72-1-.17-3-2-.83L109.39,46l0-1.94,2.14-.22-4-5.4-4.31.68-2.13-1,0-8.52-.7-1-7-23.68-1.88,0L84.4,29.17l-.33,1.22L84.21,38l-2.7,1.1-3.71-.52-4.4,5.75,2.15.22v4.32L60.72,67.06l.05,2,1.46,1-.08,5.07-9.58,4.37L45.88,77.2,26.54,85.53v52.92c7.65,2.41,30.38,7.22,70,11.73,44.89,5.11,62.82,11.72,62.82,11.72l.44.14Z"/><path class="cls-2" d="M104.47,86,98.85,84.1V68.65s.53-3.68,3-5.15c0,0,2.61,3.69,2.61,6.45Z"/><path class="cls-2" d="M112.13,88.74,107,87V71.25a9,9,0,0,1,2.75-4.68s2.39,3.28,2.39,6Z"/><path class="cls-2" d="M119,91.18l-4.31-1.53V73.77A5.22,5.22,0,0,1,117,69.92a12.37,12.37,0,0,1,2,4.9,1.5,1.5,0,0,1,0,.3Z"/><path class="cls-2" d="M112.71,131.67a1.74,1.74,0,1,1-1.72-2,1.89,1.89,0,0,1,1.72,2"/><path class="cls-2" d="M77.65,129.08A11.79,11.79,0,0,0,75.14,123a7.1,7.1,0,0,0-2.86,5.31l5.42,1.14c0-.13,0-.24,0-.36m-2.73-.65a1.88,1.88,0,1,1,1.53-1.85,1.71,1.71,0,0,1-1.53,1.85"/><path class="cls-2" d="M86.43,130.84a11.16,11.16,0,0,0-2.38-5.78,6.81,6.81,0,0,0-2.7,5.17l5.13,1.08c0-.11,0-.36,0-.47m-2.55-.48a1.78,1.78,0,1,1,1.45-1.74,1.62,1.62,0,0,1-1.45,1.74"/><path class="cls-2" d="M31.68,127.19s-.08-3.94,5-6.12c0,0,5,2.91,4.68,8Z"/><path class="cls-2" d="M159.11,151.65a11.68,11.68,0,0,0-2.41-5.48c-2.15.88-2.58,3.61-2.77,4.51Z"/><path class="cls-2" d="M134.78,102.11l1-1.66L125,96.7,126.66,123l19.86,5.28Zm-2,20.77L129,109.3h3.42l6,2.11-.33.25-5.47-1.57Z"/><path class="cls-2" d="M86.36,84.8l7.15,26.41-.88-58-.75-2L61.53,67v1.78l1.39.7v5.34l1.2-.55H65l3,1.1c.12-.58.83-3.6,1.76-4.48,1,.42,2.32,4,2.37,5l0,1,2.81,1-.19-4.47c-.1-1.86,1-5.14,1.87-6,1,.41,2.34,4.06,2.39,5l.27,7.09,3.43,1.24-.47-10.85c-.09-1.85,1-5.14,1.88-6,1,.39,2.33,4,2.38,5l.58,15.32-.52.16.32-.76Z"/><path class="cls-2" d="M85.6,84.91l.81-1.82-20.11-7-1,2.7-2.17,27.3,30.64,8Zm-2.73,9.57-7.36-2.19-.27,14.6-.29.59-.3-.72L72.09,92l3.17-.68,8.34,2.87Z"/><polygon class="cls-2" points="52.61 81 61.83 76.66 63.13 78.82 61.14 106.45 50.36 110.55 53.05 83.11 52.61 81"/><polygon class="cls-2" points="93.52 56.87 93.43 52.92 94.22 51.26 125.03 65.27 125.03 67.35 123.54 68.2 123.63 69.67 93.52 56.87"/><polygon class="cls-2" points="109.5 47.63 109.5 53 110.17 53.87 108.33 52.93 108.33 43.69 106.46 41.41 104.79 41.94 104.67 51.08 103.33 50.4 103.33 40.52 98.83 42.99 98.31 41.93 102.32 39.74 96.93 37.36 94.27 49.44 120.58 61.47 109.5 47.63"/><polygon class="cls-2" points="88.17 37.4 82.79 39.68 87.4 42.11 87.14 43.26 82.61 40.94 82.55 51.1 81.45 51.58 81.45 41.69 78.91 41.41 76.67 44.26 76.67 53.68 74.98 54.41 75.65 53.55 75.65 49.83 65.07 63.25 91.5 49.43 88.17 37.4"/><polygon class="cls-2" points="90.27 24.84 94.62 24.84 92.53 5.67 90.27 24.84"/><polygon class="cls-2" points="91.96 5.67 88.9 24.86 87.89 24.86 85.96 26.17 91.71 5.79 91.96 5.67"/><polygon class="cls-2" points="93.01 5.67 95.78 24.86 96.82 24.86 98.84 26 93.26 5.79 93.01 5.67"/><polygon class="cls-2" points="84.17 35.47 83.14 34.6 82.65 29.4 88.35 26.03 96.66 26.03 102.3 29.13 102.03 34.49 101.05 35.14 101.16 30.89 95.78 27.82 88.84 27.82 84.17 30.89 84.17 35.47"/><path class="cls-2" d="M92.53,4.22a2.52,2.52,0,0,0-2,.69,2.81,2.81,0,0,0,.87.55,1.69,1.69,0,0,1,2.16,0,1.68,1.68,0,0,0,.87-.55,2.57,2.57,0,0,0-2-.69"/><path class="cls-2" d="M91.14,3.77a3.25,3.25,0,0,1,1.49-.33A3.41,3.41,0,0,1,94,3.71a1.33,1.33,0,0,0,.4-.6A1.89,1.89,0,0,0,92.53,2a1.87,1.87,0,0,0-1.85,1.12,2.25,2.25,0,0,0,.46.66"/><path class="cls-2" d="M91.94,1.38a2.62,2.62,0,0,1,.57-.07,1.93,1.93,0,0,1,.47.05A.8.8,0,0,0,93.2.8a.76.76,0,1,0-1.51,0,.78.78,0,0,0,.25.58"/><path class="cls-2" d="M55.52,124.53c-.46,0-.87.82-.88,1.85s.34,1.86.8,1.86.88-.81.9-1.83-.34-1.87-.82-1.88"/><path class="cls-2" d="M159.24,161.84c0-3.13-.1-6.72-.1-8.57l-5.28-1,.08,8C156.31,160.94,158.1,161.48,159.24,161.84Z"/><path class="cls-2" d="M143.8,157.73V145l-3.93-.8v12.71C141.23,157.18,142.55,157.43,143.8,157.73Z"/><path class="cls-2" d="M137.43,156.37V143.7l-4.15-.84v12.71C134.71,155.86,136.1,156.09,137.43,156.37Z"/><polygon class="cls-2" points="86.48 148.99 86.48 133 81.35 131.91 81.35 148.35 86.48 148.99"/><polygon class="cls-2" points="77.63 147.85 77.7 131.16 72.28 130.06 72.29 147.13 77.63 147.85"/><path class="cls-2" d="M149.2,130.28l.8-.39-29.55-7.8V107.58c0-.1,0-.2,0-.3a12.62,12.62,0,0,0-2-4.91,5.28,5.28,0,0,0-2.3,3.86V121l-2.84-.75V105.34c0-2.76-2.39-6-2.39-6a9.05,9.05,0,0,0-2.76,4.69v14.85L105,118c0-3.38,0-13.35,0-14.86,0-2.75-2.59-6.45-2.59-6.45a11.15,11.15,0,0,0-3,5.15l0,14.68-36.94-9.74h-.09l-13,4.92-22.64-5.49v1l22.85,5.57.11,0v.87l0,0-22.94-5.57v.9l23,5.58v29c1.12.19,2.37.42,3.7.64l-.13-14,4.44-1.16v15.84c1.59.26,3.18.49,4.69.73V109.34l85.39,22,.84-.62-22-5.7,0-.68Zm-95.89-.77a14,14,0,0,1,2.19-7.2,10.64,10.64,0,0,1,2,6.06Zm9.14-21.08-.12-.79h0L94,115.88l.16.74Z"/><path class="cls-2" d="M41.26,142V131.34l-9.58-1.9V140C33.59,140.42,38,141.33,41.26,142Z"/><path class="cls-2" d="M159.42,139.59l-10.13-2.34v-.55l10.18,2.4.1-.68L149.27,136v-.78l10.21,2.46V115.5l-20.88-6.73,9.4,19.9,2.29.61.2,1.08-1.56.83h0v0h0l.32,27.81.34.08-.24-21.21,10.18,2.35Zm-11-16.31H152l4.56,1.41-.22.48-3.87-.84.11,10.71-.58-.59-.48-10.31Z"/><path class="cls-2" d="M137.39,141.91a7.47,7.47,0,0,0-2.12-4.51,6.31,6.31,0,0,0-2,3.92l4.15.86a2.51,2.51,0,0,0,0-.27m-2.07-.57a1.27,1.27,0,0,1-1.06-1.4c0-.78.48-1.41,1.06-1.41s1.06.63,1.06,1.41a1.27,1.27,0,0,1-1.06,1.4"/><path class="cls-2" d="M143.8,143.26a7.53,7.53,0,0,0-2.06-4.51,6.32,6.32,0,0,0-1.92,3.94l4,.84a1.28,1.28,0,0,0,0-.27m-2-.56c-.59,0-1-.63-1-1.41s.45-1.41,1-1.41,1,.63,1,1.41-.46,1.41-1,1.41"/><path class="cls-2" d="M104.69,151.18V135.6c0-4.9,5.13-8.3,6-8.85.88.8,6.53,6.14,6.53,11.3v14.83l.43.06V138.05c0-5.76-6.52-11.47-6.8-11.71l-.11-.09-.13.07c-.07,0-6.34,3.71-6.34,9.28v15.51Z"/><path class="cls-2" d="M115.93,152.67V139.19a2.8,2.8,0,0,0,0-.29,9.5,9.5,0,0,0-2.15-4.6c-2.34,1.85-2.16,3.54-2.16,3.54v14.24Z"/><path class="cls-2" d="M110.36,151.93V138.31c0-.1,0-.21,0-.3a12.46,12.46,0,0,0-2-4.91,5.2,5.2,0,0,0-2.29,3.86v14.36Z"/><polygon class="cls-2" points="89.65 37 95.51 37 93.02 48.44 89.65 37"/><polygon class="cls-2" points="101.06 38.11 101.06 35.16 97.03 32.39 88.28 32.39 84.19 35.46 84.16 38 88.86 36.03 96.55 36.02 101.06 38.11"/><polygon class="cls-2" points="46.32 77.03 52.81 79.22 62.39 74.85 62.46 70.06 46.32 77.03"/><path class="cls-2" d="M44,78l8.62,3-.48,2.18-2.71,27.41L26.34,105l-2,.79c-15.29,7-11,22.44,2.11,30.47v2.37A65,65,0,0,1,18,136.24C7.37,132.83,0,126,0,115.48V97l6.92-3h0Zm-1.17,12.5-9.31-3-3.36,1.22,1.74,15.06.3.72.8-.45.84-15.33L41.61,91Z"/><path class="cls-1" d="M124.32,70.8,125,91.92l39.69,16v54.37a8.76,8.76,0,0,0,.09,1.25c7,2.5,14.36,5.84,20.31,10.34V97Z"/></g></g></svg>